<svg width="2690" height="513" viewBox="0 0 2690 513" fill="none" xmlns="http://www.w3.org/2000/svg">
<g clip-path="url(#clip0_1_17)">
<path d="M316.9 18C311.6 7 300.4 0 288.1 0C275.8 0 264.7 7 259.3 18L195 150.3L51.4 171.5C39.4 173.3 29.4 181.7 25.7 193.2C22 204.7 25 217.4 33.6 225.9L137.8 329L113.2 474.7C111.2 486.7 116.2 498.9 126.1 506C136 513.1 149.1 514 159.9 508.3L288.2 439.8L416.5 508.3C427.3 514 440.4 513.2 450.3 506C460.2 498.8 465.2 486.7 463.2 474.7L438.5 329L542.7 225.9C551.3 217.4 554.4 204.7 550.6 193.2C546.8 181.7 536.9 173.3 524.9 171.5L381.2 150.3L316.9 18Z" fill="black"/>
</g>
<g clip-path="url(#clip1_1_17)">
<path d="M850.9 18C845.6 7 834.4 0 822.1 0C809.8 0 798.7 7 793.3 18L729 150.3L585.4 171.5C573.4 173.3 563.4 181.7 559.7 193.2C556 204.7 559 217.4 567.6 225.9L671.8 329L647.2 474.7C645.2 486.7 650.2 498.9 660.1 506C670 513.1 683.1 514 693.9 508.3L822.2 439.8L950.5 508.3C961.3 514 974.4 513.2 984.3 506C994.2 498.8 999.2 486.7 997.2 474.7L972.5 329L1076.7 225.9C1085.3 217.4 1088.4 204.7 1084.6 193.2C1080.8 181.7 1070.9 173.3 1058.9 171.5L915.2 150.3L850.9 18Z" fill="black"/>
</g>
<g clip-path="url(#clip2_1_17)">
<path d="M316.9 18C311.6 7 300.4 0 288.1 0C275.8 0 264.7 7 259.3 18L195 150.3L51.4 171.5C39.4 173.3 29.4 181.7 25.7 193.2C22 204.7 25 217.4 33.6 225.9L137.8 329L113.2 474.7C111.2 486.7 116.2 498.9 126.1 506C136 513.1 149.1 514 159.9 508.3L288.2 439.8L416.5 508.3C427.3 514 440.4 513.2 450.3 506C460.2 498.8 465.2 486.7 463.2 474.7L438.5 329L542.7 225.9C551.3 217.4 554.4 204.7 550.6 193.2C546.8 181.7 536.9 173.3 524.9 171.5L381.2 150.3L316.9 18Z" fill="black"/>
</g>
<g clip-path="url(#clip3_1_17)">
<path d="M850.9 18C845.6 7 834.4 0 822.1 0C809.8 0 798.7 7 793.3 18L729 150.3L585.4 171.5C573.4 173.3 563.4 181.7 559.7 193.2C556 204.7 559 217.4 567.6 225.9L671.8 329L647.2 474.7C645.2 486.7 650.2 498.9 660.1 506C670 513.1 683.1 514 693.9 508.3L822.2 439.8L950.5 508.3C961.3 514 974.4 513.2 984.3 506C994.2 498.8 999.2 486.7 997.2 474.7L972.5 329L1076.7 225.9C1085.3 217.4 1088.4 204.7 1084.6 193.2C1080.8 181.7 1070.9 173.3 1058.9 171.5L915.2 150.3L850.9 18Z" fill="black"/>
</g>
<g clip-path="url(#clip4_1_17)">
<path d="M1384.9 18C1379.6 7 1368.4 0 1356.1 0C1343.8 0 1332.7 7 1327.3 18L1263 150.3L1119.4 171.5C1107.4 173.3 1097.4 181.7 1093.7 193.2C1090 204.7 1093 217.4 1101.6 225.9L1205.8 329L1181.2 474.7C1179.2 486.7 1184.2 498.9 1194.1 506C1204 513.1 1217.1 514 1227.9 508.3L1356.2 439.8L1484.5 508.3C1495.3 514 1508.4 513.2 1518.3 506C1528.2 498.8 1533.2 486.7 1531.2 474.7L1506.5 329L1610.7 225.9C1619.3 217.4 1622.4 204.7 1618.6 193.2C1614.8 181.7 1604.9 173.3 1592.9 171.5L1449.2 150.3L1384.9 18Z" fill="black"/>
</g>
<g clip-path="url(#clip5_1_17)">
<path d="M1918.9 18C1913.6 7 1902.4 0 1890.1 0C1877.8 0 1866.7 7 1861.3 18L1797 150.3L1653.4 171.5C1641.4 173.3 1631.4 181.7 1627.7 193.2C1624 204.7 1627 217.4 1635.6 225.9L1739.8 329L1715.2 474.7C1713.2 486.7 1718.2 498.9 1728.1 506C1738 513.1 1751.1 514 1761.9 508.3L1890.2 439.8L2018.5 508.3C2029.3 514 2042.4 513.2 2052.3 506C2062.2 498.8 2067.2 486.7 2065.2 474.7L2040.5 329L2144.7 225.9C2153.3 217.4 2156.4 204.7 2152.6 193.2C2148.8 181.7 2138.9 173.3 2126.9 171.5L1983.2 150.3L1918.9 18Z" fill="black"/>
</g>
<path d="M2453.76 18C2448.46 7 2437.26 0 2424.96 0C2412.66 0 2401.56 7 2396.16 18L2331.86 150.3L2188.26 171.5C2176.26 173.3 2166.26 181.7 2162.56 193.2C2158.86 204.7 2161.86 217.4 2170.46 225.9L2274.66 329L2250.06 474.7C2248.06 486.7 2253.06 498.9 2262.96 506C2272.86 513.1 2285.96 514 2296.76 508.3L2425.06 439.8L2553.36 508.3C2564.16 514 2577.26 513.2 2587.16 506C2597.06 498.8 2602.06 486.7 2600.06 474.7L2575.36 329L2679.56 225.9C2688.16 217.4 2691.26 204.7 2687.46 193.2C2683.66 181.7 2673.76 173.3 2661.76 171.5L2518.06 150.3L2453.76 18Z" fill="black"/>
<defs>
<clipPath id="clip0_1_17">
<rect width="576" height="512" fill="white"/>
</clipPath>
<clipPath id="clip1_1_17">
<rect width="576" height="512" fill="white" transform="translate(534)"/>
</clipPath>
<clipPath id="clip2_1_17">
<rect width="576" height="512" fill="white"/>
</clipPath>
<clipPath id="clip3_1_17">
<rect width="576" height="512" fill="white" transform="translate(534)"/>
</clipPath>
<clipPath id="clip4_1_17">
<rect width="576" height="512" fill="white" transform="translate(1068)"/>
</clipPath>
<clipPath id="clip5_1_17">
<rect width="576" height="512" fill="white" transform="translate(1602)"/>
</clipPath>
</defs>
</svg>
